<svg width="362" height="277" viewBox="0 0 362 277" fill="none" xmlns="http://www.w3.org/2000/svg">
<path d="M350.356 84.9787C350.356 33.5962 314.388 0 263.006 0H140.874V276.28H274.073C330.989 276.28 361.818 239.521 361.818 192.091C361.818 166.795 349.961 144.266 327.432 132.804C341.265 121.737 350.356 101.974 350.356 84.9787ZM257.868 62.8447C272.492 62.8447 279.606 75.0975 279.211 87.3502C278.816 98.4172 271.701 109.089 257.868 109.089H213.204V62.8447H257.868ZM268.539 167.586C273.282 167.586 276.84 168.772 280.397 170.353C287.116 175.096 290.673 183.791 290.278 192.091C289.092 203.158 282.768 213.435 268.935 213.435H213.204V167.586H268.539Z" fill="#3182CE"/>
<path fill-rule="evenodd" clip-rule="evenodd" d="M211 219.895L79.4999 219.895C35.5933 219.895 -3.59119e-05 184.301 -3.39926e-05 140.395C-3.20734e-05 96.488 35.5933 60.8946 79.4999 60.8946L211 60.8946L211 133.895L79.4999 133.895C75.9101 133.895 73 136.805 73 140.395C73 143.984 75.9101 146.895 79.4999 146.895L211 146.895L211 219.895Z" fill="#3182CE"/>
</svg>
